<?xml version="1.0" encoding="iso-8859-1"?>
<!-- Uploaded to: SVG Repo, www.svgrepo.com, Generator: SVG Repo Mixer Tools -->
<svg height="800px" width="800px" version="1.1" id="Layer_1" xmlns="http://www.w3.org/2000/svg" xmlns:xlink="http://www.w3.org/1999/xlink" 
	 viewBox="0 0 512 512" xml:space="preserve">
<g>
	<path style="fill:#2F9B0B;" d="M241.612,202.557l16.265,26.736c-0.153,1.696-0.342,24.838-0.565,26.534h-0.141l-54.319-20.41
		c-22.543-22.884-35.816-53.707-36.582-86.402l-1.79-76.108l54.849,52.788c1.331,1.272,2.626,2.579,3.875,3.91
		C221.872,154.892,228.103,180.356,241.612,202.557z"/>
	<path style="fill:#2F9B0B;" d="M358.742,72.907l-1.79,76.108c-0.766,32.695-14.039,63.518-36.594,86.402l-54.307,27.804
		l-0.141-28.829c-0.224-1.708-0.412-3.416-0.565-5.112l16.265-26.724c13.509-22.201,19.728-47.653,18.397-72.952
		c1.26-1.331,2.556-2.638,3.887-3.91L358.742,72.907z"/>
</g>
<path style="fill:#31AF0E;" d="M307.963,135.485c1.607,30.541-5.901,61.266-22.208,88.067l-19.635,32.261l-4.507,7.408l-4.507-7.393
	l-19.635-32.275c-16.309-26.802-23.83-57.54-22.224-88.067c0.896-17.147,4.664-34.237,11.375-50.517L261.612,0l34.991,84.967
	C303.3,101.262,307.082,118.337,307.963,135.485z"/>
<g>
	<path style="fill:#F7B239;" d="M379.659,348.967c-0.33,2.179-0.895,4.358-1.72,6.478H134.069c-0.824-2.12-1.39-4.299-1.72-6.478
		c-1.661-10.541,2.144-21.388,10.4-28.596l36.605-31.941l11.707-10.211l66.109-22.39l63.765,22.39l11.707,10.211l36.617,31.941
		C377.516,327.578,381.32,338.426,379.659,348.967z"/>
	<polygon style="fill:#F7B239;" points="377.94,355.445 375.443,361.922 320.935,503.162 191.061,503.162 136.567,361.922 
		134.069,355.445 	"/>
</g>
<path style="fill:#E09B2D;" d="M379.659,348.967c-0.33,2.179-0.895,4.358-1.72,6.478l-2.497,6.478H136.565l-2.497-6.478
	c-0.824-2.12-1.39-4.299-1.72-6.478H379.659z"/>
<path style="fill:#999999;" d="M381.428,512H130.573c-4.88,0-8.833-3.955-8.833-8.833s3.954-8.833,8.833-8.833h250.854
	c4.88,0,8.833,3.955,8.833,8.833S386.307,512,381.428,512z"/>
<g>
	<path style="fill:#E09B2D;" d="M206.62,330.582c4.877,0,8.833-3.957,8.833-8.833s-3.956-8.833-8.833-8.833
		c-4.887,0-8.833,3.957-8.833,8.833C197.786,326.624,201.732,330.582,206.62,330.582z"/>
	<path style="fill:#E09B2D;" d="M305.388,330.582c4.876,0,8.833-3.957,8.833-8.833s-3.957-8.833-8.833-8.833
		c-4.887,0-8.833,3.957-8.833,8.833C296.555,326.624,300.502,330.582,305.388,330.582z"/>
	<circle style="fill:#E09B2D;" cx="231.305" cy="321.746" r="8.833"/>
	<path style="fill:#E09B2D;" d="M256.004,330.582c4.876,0,8.833-3.957,8.833-8.833s-3.957-8.833-8.833-8.833
		c-4.888,0-8.833,3.957-8.833,8.833C247.171,326.624,251.116,330.582,256.004,330.582z"/>
	<circle style="fill:#E09B2D;" cx="280.689" cy="321.746" r="8.833"/>
	<path style="fill:#E09B2D;" d="M280.69,380.308c-4.877,0-8.833,3.957-8.833,8.833c0,4.888,3.956,8.833,8.833,8.833
		c4.876,0,8.833-3.946,8.833-8.833C289.524,384.265,285.566,380.308,280.69,380.308z"/>
	<path style="fill:#E09B2D;" d="M305.388,380.308c-4.887,0-8.833,3.957-8.833,8.833c0,4.888,3.947,8.833,8.833,8.833
		c4.876,0,8.833-3.946,8.833-8.833C314.222,384.265,310.264,380.308,305.388,380.308z"/>
	<path style="fill:#E09B2D;" d="M256.004,380.308c-4.888,0-8.833,3.957-8.833,8.833c0,4.888,3.946,8.833,8.833,8.833
		c4.876,0,8.833-3.946,8.833-8.833C264.837,384.265,260.88,380.308,256.004,380.308z"/>
	<path style="fill:#E09B2D;" d="M231.307,380.308c-4.877,0-8.833,3.957-8.833,8.833c0,4.888,3.956,8.833,8.833,8.833
		c4.876,0,8.833-3.946,8.833-8.833C240.141,384.265,236.182,380.308,231.307,380.308z"/>
	<path style="fill:#E09B2D;" d="M206.62,380.308c-4.887,0-8.833,3.957-8.833,8.833c0,4.888,3.947,8.833,8.833,8.833
		c4.877,0,8.833-3.946,8.833-8.833C215.453,384.265,211.496,380.308,206.62,380.308z"/>
	<circle style="fill:#E09B2D;" cx="330.074" cy="321.746" r="8.833"/>
	<circle style="fill:#E09B2D;" cx="181.921" cy="321.746" r="8.833"/>
	<circle style="fill:#E09B2D;" cx="181.921" cy="389.139" r="8.833"/>
	<circle style="fill:#E09B2D;" cx="330.074" cy="389.139" r="8.833"/>
	<polygon style="fill:#E09B2D;" points="332.642,288.429 179.354,288.429 191.061,278.218 257.17,255.828 320.935,278.218 	"/>
</g>
<path style="fill:#F7B239;" d="M343.867,256.823L343.867,256.823c0,11.815-9.579,21.394-21.394,21.394h-1.537H191.061h-1.525
	c-11.815,0-21.394-9.579-21.394-21.394v-0.012c0-11.815,9.579-21.394,21.394-21.394h13.315h54.319h4.44h4.44h54.307h2.102
	C334.283,235.417,343.867,245.001,343.867,256.823z"/>
</svg>