<?xml version="1.0" encoding="iso-8859-1"?>
<!-- Uploaded to: SVG Repo, www.svgrepo.com, Generator: SVG Repo Mixer Tools -->
<svg height="800px" width="800px" version="1.1" id="Layer_1" xmlns="http://www.w3.org/2000/svg" xmlns:xlink="http://www.w3.org/1999/xlink" 
	 viewBox="0 0 512 512" xml:space="preserve">
<g>
	<path style="fill:#B27214;" d="M304.813,200.207c0,22.183-26.354,21.583-26.354-2.92c-47.89-37.929-10.2-74.219-18.505-108.756
		L256,0l47.577,88.53c18.29,34.021,18.759,73.701,3.388,107.218C306.28,197.25,305.559,198.729,304.813,200.207z"/>
	<path style="fill:#B27214;" d="M256,0l3.956,88.53c-8.292,34.538,9.607,99.082-26.428,108.756c0,32.314-13.579,43.129-24.707,2.428
		c-0.145-0.192-1.743-2.428-4.506-5.6c-14.625-33.168-13.867-72.115,4.109-105.584L256,0z"/>
</g>
<path style="fill:#E09B2D;" d="M277.258,88.53c8.304,34.538,8.388,74.915,1.201,108.756C265.733,197.875,256,236.21,256,236.21
	s-9.746-38.347-22.472-38.924c-7.186-33.84-7.09-74.219,1.201-108.756L256,0L277.258,88.53z"/>
<g>
	<path style="fill:#F95428;" d="M389.374,279.723l-33.668-33.68l-22.694-22.694l-27.954-12.777c1.435,7.57-0.327-7.484,0,0
		C271.203,180.694,256,190.346,256,190.346s-24.655-6.334-57.64,24.955c0.215-8.566-1.652,8.716,0,0L179,223.348l-22.389,22.389
		l-33.974,33.985l-6.216,6.216h32.211h32.233h150.27h36.754h27.701L389.374,279.723z"/>
	<polygon style="fill:#F95428;" points="357.525,442.606 351.309,448.822 318.206,481.926 254.824,498.935 193.805,481.926 
		154.486,442.606 	"/>
	<path style="fill:#F95428;" d="M417.391,376.162c-2.204,4.849-4.973,9.494-8.284,13.867c-2.034,2.701-4.283,5.289-6.747,7.742
		l-44.835,44.835H154.486l-44.835-44.835c-2.464-2.464-4.724-5.063-6.77-7.764c-3.3-4.363-6.069-9.008-8.273-13.845
		c-12.545-27.407-7.538-60.883,15.043-83.453l0.554-0.554l6.205-6.216h279.18l6.77,6.77
		C424.93,315.279,429.936,348.755,417.391,376.162z"/>
</g>
<g>
	<path style="fill:#2F9B0B;" d="M402.925,258.159l-46.914-12.421l-0.305,0.305l-22.694-22.694h-2.215h-0.011
		c-39.184,0-45.027-17.281-28.876-33.431c0.701-1.39,1.379-2.78,2.023-4.193c7.55-9.064,28.831-30.979,53.221-24.197
		C387.667,170.004,377.496,232.729,402.925,258.159z"/>
	<path style="fill:#2F9B0B;" d="M207.39,184.188c0.848,1.933,1.752,3.843,2.712,5.73c13.122,21.428,0.689,40.077-28.888,33.431H179
		l-22.389,22.389l-46.914,12.421c25.418-25.429,15.246-88.155,45.762-96.632C178.559,155.108,198.88,174.423,207.39,184.188z"/>
</g>
<g>
	<path style="fill:#F7B239;" d="M417.391,376.162c-2.204,4.849-4.973,9.494-8.284,13.867c-12.839,0.882-20.513,3.436-28.537,6.114
		c-10.533,3.504-21.417,7.132-42.902,7.132c-21.474,0-32.357-3.628-42.891-7.132c-9.934-3.311-19.326-6.431-38.607-6.431
		s-28.673,3.131-38.607,6.431c-10.533,3.504-21.417,7.132-42.891,7.132s-32.357-3.628-42.891-7.132
		c-8.103-2.701-15.845-5.278-28.899-6.137c-3.3-4.363-6.069-9.008-8.273-13.845c20.524,0.147,31.159,3.696,41.455,7.12
		c9.946,3.3,19.338,6.431,38.607,6.431s28.662-3.131,38.607-6.431c10.522-3.504,21.417-7.132,42.891-7.132
		s32.357,3.628,42.891,7.132c9.946,3.3,19.338,6.431,38.607,6.431c19.281,0,28.673-3.131,38.619-6.431
		C386.526,379.88,397.093,376.354,417.391,376.162z"/>
	<path style="fill:#F7B239;" d="M166.251,373.031c-1.013,0-2.024-0.387-2.797-1.158c-1.545-1.545-1.545-4.049,0-5.594l15.982-15.981
		c1.545-1.544,4.048-1.544,5.593,0c1.545,1.545,1.545,4.049,0,5.594l-15.982,15.981
		C168.275,372.645,167.263,373.031,166.251,373.031z"/>
	<path style="fill:#F7B239;" d="M182.232,373.031c-1.013,0-2.024-0.387-2.797-1.158l-15.982-15.981
		c-1.545-1.545-1.545-4.049,0-5.594c1.545-1.544,4.048-1.544,5.593,0l15.982,15.981c1.545,1.545,1.545,4.049,0,5.594
		C184.257,372.645,183.245,373.031,182.232,373.031z"/>
	<path style="fill:#F7B239;" d="M329.756,373.031c-1.013,0-2.024-0.387-2.797-1.158c-1.545-1.545-1.545-4.049,0-5.594l15.982-15.981
		c1.545-1.544,4.048-1.544,5.593,0c1.545,1.545,1.545,4.049,0,5.594l-15.982,15.981C331.78,372.645,330.768,373.031,329.756,373.031
		z"/>
	<path style="fill:#F7B239;" d="M345.737,373.031c-1.013,0-2.024-0.387-2.797-1.158l-15.982-15.981
		c-1.545-1.545-1.545-4.049,0-5.594c1.545-1.544,4.048-1.544,5.593,0l15.982,15.981c1.545,1.545,1.545,4.049,0,5.594
		C347.762,372.645,346.75,373.031,345.737,373.031z"/>
	<path style="fill:#F7B239;" d="M248.008,337.916c-1.013,0-2.024-0.387-2.797-1.158c-1.545-1.545-1.545-4.049,0-5.594l15.982-15.981
		c1.545-1.544,4.048-1.545,5.593,0c1.545,1.545,1.545,4.049,0,5.594l-15.982,15.981C250.032,337.53,249.021,337.916,248.008,337.916
		z"/>
	<path style="fill:#F7B239;" d="M263.99,337.916c-1.013,0-2.024-0.387-2.797-1.158l-15.982-15.981c-1.545-1.545-1.545-4.049,0-5.594
		c1.543-1.545,4.048-1.545,5.593,0l15.982,15.981c1.545,1.545,1.545,4.049,0,5.594C266.014,337.53,265.003,337.916,263.99,337.916z"
		/>
	<path style="fill:#F7B239;" d="M380.806,337.916c-1.013,0-2.024-0.387-2.797-1.158c-1.545-1.545-1.545-4.049,0-5.594l15.982-15.981
		c1.545-1.544,4.048-1.545,5.593,0c1.545,1.545,1.545,4.049,0,5.594l-15.982,15.981C382.83,337.53,381.818,337.916,380.806,337.916z
		"/>
	<path style="fill:#F7B239;" d="M396.788,337.916c-1.013,0-2.024-0.387-2.797-1.158l-15.982-15.981
		c-1.545-1.545-1.545-4.049,0-5.594c1.543-1.545,4.048-1.545,5.593,0l15.982,15.981c1.545,1.545,1.545,4.049,0,5.594
		C398.812,337.53,397.801,337.916,396.788,337.916z"/>
	<path style="fill:#F7B239;" d="M115.21,337.916c-1.013,0-2.024-0.387-2.797-1.158c-1.545-1.545-1.545-4.049,0-5.594l15.982-15.981
		c1.545-1.544,4.048-1.545,5.593,0c1.545,1.545,1.545,4.049,0,5.594l-15.982,15.981C117.235,337.53,116.223,337.916,115.21,337.916z
		"/>
	<path style="fill:#F7B239;" d="M131.193,337.916c-1.013,0-2.024-0.387-2.797-1.158l-15.982-15.981
		c-1.545-1.545-1.545-4.049,0-5.594c1.543-1.545,4.048-1.545,5.593,0l15.982,15.981c1.545,1.545,1.545,4.049,0,5.594
		C133.217,337.53,132.205,337.916,131.193,337.916z"/>
	<polygon style="fill:#F7B239;" points="401.806,292.155 110.205,292.155 116.41,285.939 116.421,285.939 122.637,279.723 
		389.374,279.723 	"/>
	<polygon style="fill:#F7B239;" points="363.741,436.39 351.309,448.822 160.702,448.822 148.27,436.39 	"/>
</g>
<polygon style="fill:#E54728;" points="318.206,481.926 335.995,512 175.993,512 193.805,481.926 "/>
<g>
	<path style="fill:#31AF0E;" d="M277.123,187.171c7.663-0.35,16.49,0.147,24.785,2.746c13.235,4.137,25.124,13.596,28.876,33.431
		c4.148,21.903,3.018,44.191,0.35,62.59c-3.639,24.989-10.126,42.823-10.126,42.823c-16.083-8.816-28.368-24.785-37.681-42.823
		C261.572,243.794,256,190.347,256,190.347S265.154,187.725,277.123,187.171z"/>
	<path style="fill:#31AF0E;" d="M234.865,187.171c11.969,0.542,21.135,3.176,21.135,3.176s-5.572,53.447-27.328,95.592
		c-9.313,18.038-21.598,34.007-37.681,42.823c0,0-6.487-17.834-10.127-42.823c-2.667-18.4-3.797-40.687,0.35-62.59
		c3.752-19.835,15.653-29.306,28.888-33.431c0.509-0.17,1.017-0.316,1.526-0.463C219.472,187.262,227.677,186.832,234.865,187.171z"
		/>
</g>
</svg>